<?xml version="1.0" encoding="UTF-8" standalone="no"?>
<!-- Created with Inkscape (http://www.inkscape.org/) -->

<svg
   xmlns:dc="http://purl.org/dc/elements/1.1/"
   xmlns:cc="http://creativecommons.org/ns#"
   xmlns:rdf="http://www.w3.org/1999/02/22-rdf-syntax-ns#"
   xmlns:svg="http://www.w3.org/2000/svg"
   xmlns="http://www.w3.org/2000/svg"
   xmlns:sodipodi="http://sodipodi.sourceforge.net/DTD/sodipodi-0.dtd"
   xmlns:inkscape="http://www.inkscape.org/namespaces/inkscape"
   width="885.82672"
   height="885.82672"
   id="svg2"
   version="1.1"
   inkscape:version="0.91 r13725"
   sodipodi:docname="bottleandglass.svg">
  <metadata
     id="metadata7748">
    <rdf:RDF>
      <cc:Work
         rdf:about="">
        <dc:format>image/svg+xml</dc:format>
        <dc:type
           rdf:resource="http://purl.org/dc/dcmitype/StillImage" />
      </cc:Work>
    </rdf:RDF>
  </metadata>
  <sodipodi:namedview
     pagecolor="#ffffff"
     bordercolor="#666666"
     borderopacity="1"
     objecttolerance="10"
     gridtolerance="10"
     guidetolerance="10"
     inkscape:pageopacity="0"
     inkscape:pageshadow="2"
     inkscape:window-width="1916"
     inkscape:window-height="1035"
     id="namedview7746"
     showgrid="false"
     inkscape:zoom="0.26641779"
     inkscape:cx="439.15986"
     inkscape:cy="442.91336"
     inkscape:window-x="4"
     inkscape:window-y="1"
     inkscape:window-maximized="1"
     inkscape:current-layer="g11047" />
  <defs
     id="defs7587" />
  <g
     inkscape:groupmode="layer"
     id="layer2"
     inkscape:label="Draw">
    <g
       id="g11047"
       transform="translate(51.909987,-75.363963)">
      <g
         transform="matrix(4.1224259,0,0,4.141331,-2120.6182,-680.91957)"
         id="g10884">
        <path
           sodipodi:type="arc"
           style="color:#000000;display:inline;overflow:visible;visibility:visible;fill:#800000;stroke:#800000;stroke-width:1;stroke-linecap:round;stroke-linejoin:round;stroke-miterlimit:4;stroke-dasharray:none;stroke-dashoffset:0;stroke-opacity:1;marker:none;enable-background:accumulate"
           id="path3559"
           sodipodi:cx="75.091637"
           sodipodi:cy="182.00175"
           sodipodi:rx="99.273682"
           sodipodi:ry="99.273682"
           d="M 174.36532,182.00175 A 99.273682,99.273682 0 0 1 75.306785,281.2752 99.273682,99.273682 0 0 1 -24.181112,182.43205 99.273682,99.273682 0 0 1 74.446195,82.730171 99.273682,99.273682 0 0 1 174.36159,181.14117"
           sodipodi:start="0"
           sodipodi:end="6.2745164"
           sodipodi:open="true"
           transform="translate(535.82335,108.18286)" />
        <g
           id="g5338"
           transform="matrix(6.0556186,0,0,6.2647583,548.08794,225.18462)"
           style="fill:#ffffff">
          <g
             id="g5298"
             style="fill:#ffffff">
            <path
               id="path5300"
               d="M 9.962,10.465 C 9.962,9.61 9.751,8.783 9.346,8.073 L 9.25,7.905 3.24,7.905 3.146,8.073 C 2.742,8.782 2.53,9.61 2.53,10.465 c 0,2.181 1.388,3.988 3.189,4.287 l 0,5.093 c -1.039,0.042 -1.813,0.2 -1.813,0.387 0,0.222 1.055,0.4 2.357,0.4 1.303,0 2.36,-0.178 2.36,-0.4 0,-0.187 -0.774,-0.345 -1.813,-0.387 l 0,-5.097 C 8.593,14.43 9.962,12.63 9.962,10.465 Z m -3.717,3.666 c -1.682,0 -3.052,-1.644 -3.052,-3.668 0,-0.674 0.151,-1.325 0.44,-1.896 l 5.225,0 C 9.146,9.138 9.299,9.79 9.299,10.463 9.3,12.488 7.928,14.131 6.245,14.131 Z m 10.08,-11.839 -2.643,0 0,-2.292 2.643,0 0,2.292 z m 0,2.84 0,-2.135 -2.643,0 0,2.136 c -1.116,0.503 -1.896,1.625 -1.896,2.931 l 0,2.093 0,6.673 0,3.921 6.434,0 0,-3.921 0,-6.673 0,-2.093 C 18.221,6.758 17.443,5.636 16.325,5.132 Z m 1.327,12.384 -5.241,0 0,-6.288 5.241,0 0,6.288 z m -8.63,-6.982 c 0,0 -0.139,3.325 -2.732,3.325 -2.593,0 -2.943,-3.325 -2.943,-3.325 l 5.675,0 z"
               style="fill:#ffffff"
               inkscape:connector-curvature="0" />
          </g>
          <g
             id="g5302"
             style="fill:#ffffff" />
          <g
             id="g5304"
             style="fill:#ffffff" />
          <g
             id="g5306"
             style="fill:#ffffff" />
          <g
             id="g5308"
             style="fill:#ffffff" />
          <g
             id="g5310"
             style="fill:#ffffff" />
          <g
             id="g5312"
             style="fill:#ffffff" />
          <g
             id="g5314"
             style="fill:#ffffff" />
          <g
             id="g5316"
             style="fill:#ffffff" />
          <g
             id="g5318"
             style="fill:#ffffff" />
          <g
             id="g5320"
             style="fill:#ffffff" />
          <g
             id="g5322"
             style="fill:#ffffff" />
          <g
             id="g5324"
             style="fill:#ffffff" />
          <g
             id="g5326"
             style="fill:#ffffff" />
          <g
             id="g5328"
             style="fill:#ffffff" />
          <g
             id="g5330"
             style="fill:#ffffff" />
        </g>
      </g>
    </g>
  </g>
</svg>
