<?xml version="1.0" encoding="utf-8"?>
<!-- Generator: Adobe Illustrator 16.0.0, SVG Export Plug-In . SVG Version: 6.00 Build 0)  -->
<!DOCTYPE svg PUBLIC "-//W3C//DTD SVG 1.1//EN" "http://www.w3.org/Graphics/SVG/1.1/DTD/svg11.dtd">
<svg version="1.1" id="char-broiled_cheeseburger" xmlns="http://www.w3.org/2000/svg" xmlns:xlink="http://www.w3.org/1999/xlink"
	 x="0px" y="0px" width="220px" height="210px" viewBox="0 0 220 210" enable-background="new 0 0 220 210" xml:space="preserve">
<g id="burger_group">
	<path fill="#DF3540" d="M29.048,124.048h61.904c2.858,0,4.762-1.907,4.762-4.762c0-2.855-1.904-4.763-4.762-4.763H29.048
		c-2.858,0-4.762,1.907-4.762,4.763C24.286,122.141,26.19,124.048,29.048,124.048"/>
	<path fill="#004463" d="M90.952,133.571H29.048c-8.097,0-14.286-6.189-14.286-14.285c0-8.097,6.189-14.286,14.286-14.286h61.904
		c8.097,0,14.286,6.189,14.286,14.286C105.238,127.382,99.049,133.571,90.952,133.571 M29.048,114.523
		c-2.858,0-4.762,1.907-4.762,4.763c0,2.854,1.904,4.762,4.762,4.762h61.904c2.858,0,4.762-1.907,4.762-4.762
		c0-2.855-1.904-4.763-4.762-4.763H29.048z"/>
	<path fill="#DF3540" d="M110,124.048h42.857c2.855,0,4.762-1.907,4.762-4.762c0-2.855-1.906-4.763-4.762-4.763H110
		c-2.857,0-4.762,1.907-4.762,4.763C105.238,122.141,107.143,124.048,110,124.048"/>
	<path fill="#004463" d="M152.857,133.571H110c-8.096,0-14.286-6.189-14.286-14.285c0-8.097,6.189-14.286,14.286-14.286h42.857
		c8.096,0,14.285,6.189,14.285,14.286C167.143,127.382,160.953,133.571,152.857,133.571 M110,114.523
		c-2.857,0-4.762,1.907-4.762,4.763c0,2.854,1.904,4.762,4.762,4.762h42.857c2.855,0,4.762-1.907,4.762-4.762
		c0-2.855-1.906-4.763-4.762-4.763H110z"/>
	<path fill="#DF3540" d="M171.904,124.048h19.048c2.855,0,4.762-1.907,4.762-4.762c0-2.855-1.906-4.763-4.762-4.763h-19.048
		c-2.854,0-4.762,1.907-4.762,4.763C167.143,122.141,169.05,124.048,171.904,124.048"/>
	<path fill="#004463" d="M190.952,133.571h-19.048c-8.096,0-14.285-6.189-14.285-14.285c0-8.097,6.189-14.286,14.285-14.286h19.048
		c8.097,0,14.286,6.189,14.286,14.286C205.238,127.382,199.049,133.571,190.952,133.571 M171.904,114.523
		c-2.854,0-4.762,1.907-4.762,4.763c0,2.854,1.907,4.762,4.762,4.762h19.048c2.855,0,4.762-1.907,4.762-4.762
		c0-2.855-1.906-4.763-4.762-4.763H171.904z"/>
	<path fill="#F6B545" d="M190.952,171.667H29.048c-2.858,0-4.762,1.906-4.762,4.762c0,10.477,8.571,19.048,19.048,19.048h133.333
		c10.477,0,19.047-8.571,19.047-19.048C195.714,173.573,193.808,171.667,190.952,171.667"/>
	<path fill="#F6B545" d="M29.048,71.667h161.904c2.855,0,4.762-1.904,4.762-4.762c0-29.048-23.335-52.381-52.381-52.381H76.667
		c-29.048,0-52.381,23.333-52.381,52.381C24.286,69.762,26.19,71.667,29.048,71.667"/>
	<path fill="#014463" d="M190.952,81.19H29.048c-8.097,0-14.286-6.189-14.286-14.286C14.762,32.618,42.38,5,76.667,5h66.667
		c34.287,0,61.905,27.618,61.905,61.905C205.238,75.001,199.049,81.19,190.952,81.19 M76.667,14.524
		c-29.048,0-52.381,23.333-52.381,52.381c0,2.857,1.904,4.762,4.762,4.762h161.904c2.855,0,4.762-1.904,4.762-4.762
		c0-29.048-23.335-52.381-52.381-52.381H76.667z"/>
	<path fill="#A55A00" d="M152.378,15.477c17.146,8.571,29.051,26.19,29.051,46.666c0,2.854-1.907,4.762-4.762,4.762H24.286
		c0,2.853,1.904,4.762,4.762,4.762h161.904c2.855,0,4.762-1.909,4.762-4.762C195.714,41.187,177.141,19.758,152.378,15.477"/>
	<path fill="#AB6C4D" d="M198.096,147.857H21.905c-3.809,0-7.143,3.334-7.143,7.143s3.334,7.143,7.143,7.143h176.191
		c3.809,0,7.143-3.334,7.143-7.143S201.904,147.857,198.096,147.857"/>
	<path fill="#004463" d="M198.096,171.667H21.905c-9.047,0-16.667-7.617-16.667-16.667s7.619-16.667,16.667-16.667h176.191
		c9.049,0,16.666,7.617,16.666,16.667S207.145,171.667,198.096,171.667 M21.905,147.857c-3.809,0-7.143,3.334-7.143,7.143
		s3.334,7.143,7.143,7.143h176.191c3.809,0,7.143-3.334,7.143-7.143s-3.334-7.143-7.143-7.143H21.905z"/>
	<path fill="#3BB54A" d="M17.143,138.333h185.715c1.428,0,2.381-0.953,2.381-2.381s-0.953-2.381-2.381-2.381H17.143
		c-1.427,0-2.381,0.953-2.381,2.381S15.715,138.333,17.143,138.333"/>
	<path fill="#014463" d="M202.857,147.857H17.143c-6.666,0-11.904-5.236-11.904-11.905c0-6.668,5.238-11.904,11.904-11.904h185.715
		c6.668,0,11.904,5.236,11.904,11.904C214.762,142.621,209.525,147.857,202.857,147.857 M17.143,133.571
		c-1.427,0-2.381,0.953-2.381,2.381s0.954,2.381,2.381,2.381h185.715c1.428,0,2.381-0.953,2.381-2.381s-0.953-2.381-2.381-2.381
		H17.143z"/>
	<path fill="#3BB54A" d="M17.143,85.952h185.715c1.428,0,2.381-0.953,2.381-2.381s-0.953-2.381-2.381-2.381H17.143
		c-1.427,0-2.381,0.953-2.381,2.381S15.715,85.952,17.143,85.952"/>
	<path fill="#014463" d="M202.857,95.476H17.143c-6.666,0-11.904-5.238-11.904-11.905c0-6.666,5.238-11.905,11.904-11.905h185.715
		c6.668,0,11.904,5.239,11.904,11.905C214.762,90.238,209.525,95.476,202.857,95.476 M17.143,81.19
		c-1.427,0-2.381,0.953-2.381,2.381s0.954,2.381,2.381,2.381h185.715c1.428,0,2.381-0.953,2.381-2.381s-0.953-2.381-2.381-2.381
		H17.143z"/>
	<path fill="#FFCB5B" d="M102.38,105h93.333c2.855,0,4.763-1.904,4.763-4.762c0-2.858-1.907-4.762-4.763-4.762H24.286
		c-2.857,0-4.762,1.904-4.762,4.762c0,2.857,1.904,4.762,4.762,4.762h33.333c5.238,0,9.523,4.287,9.523,9.523v7.144
		c0,1.906,2.381,2.854,3.809,1.906l16.667-13.337C91.903,106.906,97.142,105,102.38,105"/>
	<path fill="#004463" d="M69.524,133.571c-6.667,0-11.905-5.236-11.905-11.904v-7.144H24.286c-8.096,0-14.286-6.189-14.286-14.285
		c0-8.096,6.189-14.286,14.286-14.286h171.428c8.097,0,14.286,6.19,14.286,14.286c0,8.096-6.189,14.285-14.286,14.285H102.38
		c-3.332,0-6.189,0.954-9.047,3.335L76.667,131.19C74.762,132.618,71.905,133.571,69.524,133.571 M24.286,95.476
		c-2.857,0-4.762,1.904-4.762,4.762c0,2.857,1.904,4.762,4.762,4.762h33.333c5.238,0,9.523,4.287,9.523,9.523v7.144
		c0,1.906,2.381,2.854,3.809,1.906l16.667-13.337c4.288-3.33,9.524-5.236,14.762-5.236h93.333c2.855,0,4.763-1.904,4.763-4.762
		c0-2.858-1.907-4.762-4.763-4.762H24.286z"/>
	<path fill="#F6B545" d="M52.857,100.238H19.524c0,2.857,1.904,4.762,4.762,4.762h33.333c1.428,0,2.857,0.475,3.809,0.953
		C60,102.619,56.666,100.238,52.857,100.238"/>
	<path fill="#F6B545" d="M86.19,105.475l-19.048,16.192c0,1.906,2.381,2.854,3.809,1.906l16.667-13.337
		c4.288-3.33,9.524-5.239,14.762-5.239h93.333c2.855,0,4.763-1.904,4.763-4.762h-99.523
		C95.714,100.236,90.476,102.145,86.19,105.475"/>
	<path fill="#B68824" d="M95.714,28.81c2.627,0,4.762,2.127,4.762,4.762c0,2.635-2.134,4.762-4.762,4.762s-4.762-2.127-4.762-4.762
		C90.952,30.937,93.087,28.81,95.714,28.81"/>
	<path fill="#B68824" d="M67.143,28.81c2.628,0,4.762,2.127,4.762,4.762c0,2.635-2.134,4.762-4.762,4.762
		c-2.627,0-4.762-2.127-4.762-4.762C62.381,30.937,64.516,28.81,67.143,28.81"/>
	<path fill="#B68824" d="M52.857,47.857c2.627,0,4.762,2.127,4.762,4.762c0,2.634-2.135,4.762-4.762,4.762
		c-2.628,0-4.762-2.127-4.762-4.762C48.095,49.984,50.229,47.857,52.857,47.857"/>
	<path fill="#B68824" d="M81.429,47.857c2.627,0,4.762,2.127,4.762,4.762c0,2.634-2.134,4.762-4.762,4.762s-4.762-2.127-4.762-4.762
		C76.667,49.984,78.801,47.857,81.429,47.857"/>
	<path fill="#B68824" d="M152.857,28.81c2.627,0,4.762,2.127,4.762,4.762c0,2.635-2.135,4.762-4.762,4.762
		c-2.628,0-4.762-2.127-4.762-4.762C148.096,30.937,150.229,28.81,152.857,28.81"/>
	<path fill="#B68824" d="M124.286,28.81c2.627,0,4.762,2.127,4.762,4.762c0,2.635-2.135,4.762-4.762,4.762
		c-2.628,0-4.763-2.127-4.763-4.762C119.523,30.937,121.658,28.81,124.286,28.81"/>
	<path fill="#B68824" d="M110,47.857c2.627,0,4.762,2.127,4.762,4.762c0,2.634-2.135,4.762-4.762,4.762
		c-2.627,0-4.762-2.127-4.762-4.762C105.238,49.984,107.373,47.857,110,47.857"/>
	<path fill="#B68824" d="M138.571,47.857c2.628,0,4.762,2.127,4.762,4.762c0,2.634-2.134,4.762-4.762,4.762
		c-2.627,0-4.762-2.127-4.762-4.762C133.81,49.984,135.944,47.857,138.571,47.857"/>
	<path fill="#B68824" d="M167.143,47.857c2.628,0,4.762,2.127,4.762,4.762c0,2.634-2.134,4.762-4.762,4.762
		c-2.627,0-4.762-2.127-4.762-4.762C162.381,49.984,164.516,47.857,167.143,47.857"/>
	<path fill="#89333F" d="M15.238,157.381c0.954,2.855,3.809,4.762,6.667,4.762h176.191c3.334,0,5.715-1.906,6.668-4.762H15.238z"/>
	<path fill="#A55A00" d="M190.952,171.667h-4.762H29.048c2.857,2.854,7.143,4.762,11.428,4.762h126.667
		c9.05,0,9.524,14.285,0.475,14.285h-0.475H33.81c-0.953,0-2.381,0-3.334-0.474c3.334,3.329,8.096,5.236,12.858,5.236h133.333
		c10.477,0,19.047-8.571,19.047-19.048c0-0.953-0.474-1.907-0.953-2.855C193.808,172.62,192.38,171.667,190.952,171.667"/>
	<path fill="#014463" d="M176.667,205H43.333c-15.713,0-28.572-12.858-28.572-28.571c0-8.097,6.189-14.286,14.286-14.286h161.904
		c8.097,0,14.286,6.189,14.286,14.286C205.238,192.142,192.38,205,176.667,205 M29.048,171.667c-2.858,0-4.762,1.906-4.762,4.762
		c0,10.477,8.571,19.048,19.048,19.048h133.333c10.477,0,19.047-8.571,19.047-19.048c0-2.855-1.906-4.762-4.762-4.762H29.048z"/>
</g>
</svg>
