<?xml version="1.0" standalone="no"?>
<!DOCTYPE svg PUBLIC "-//W3C//DTD SVG 20010904//EN"
 "http://www.w3.org/TR/2001/REC-SVG-20010904/DTD/svg10.dtd">
<svg version="1.0" xmlns="http://www.w3.org/2000/svg"
 width="300.000000pt" height="65.000000pt" viewBox="0 0 300.000000 65.000000"
 preserveAspectRatio="xMidYMid meet">
<metadata>
Created by potrace 1.10, written by Peter Selinger 2001-2011
</metadata>
<g transform="translate(0.000000,65.000000) scale(0.100000,-0.100000)"
fill="#ffc451" stroke="none">
<path d="M164 605 c-18 -34 -18 -36 0 -70 16 -28 17 -40 8 -60 -12 -25 -1 -42
19 -30 23 15 29 55 12 90 -13 28 -14 39 -5 60 12 26 9 45 -7 45 -4 0 -16 -16
-27 -35z"/>
<path d="M256 615 c-20 -31 -20 -50 1 -86 15 -25 16 -33 4 -50 -18 -30 4 -53
25 -25 19 26 18 58 -3 94 -17 29 -17 31 1 51 10 11 15 25 11 30 -10 17 -21 13
-39 -14z"/>
<path d="M346 618 c-20 -29 -20 -62 0 -93 12 -19 13 -28 4 -45 -17 -33 3 -48
24 -19 20 30 20 53 -1 85 -13 21 -14 30 -5 45 27 42 6 67 -22 27z"/>
<path d="M994 585 c-13 -20 -19 -57 -23 -150 -5 -101 -9 -127 -25 -144 -27
-29 -42 -26 -53 12 l-9 32 -17 -32 c-21 -39 -47 -44 -47 -10 0 33 30 58 59 50
18 -4 22 -2 19 8 -9 27 -56 23 -81 -7 -50 -61 -77 -84 -96 -84 -29 0 -47 40
-32 69 13 24 44 30 35 6 -4 -9 0 -15 10 -15 19 0 21 31 4 48 -32 32 -78 -6
-78 -65 0 -35 29 -73 55 -73 22 0 75 29 75 40 0 6 9 1 20 -10 24 -24 33 -25
50 -5 11 14 15 14 32 -2 18 -16 21 -16 49 -1 l29 17 0 -102 c0 -120 5 -144 32
-153 52 -16 71 84 30 166 -19 40 -20 45 -6 53 9 5 25 18 35 28 19 19 19 19 39
-1 22 -22 57 -26 80 -7 19 14 50 58 50 69 0 17 -29 7 -35 -12 -8 -25 -50 -54
-64 -45 -7 4 -3 17 10 34 27 36 18 71 -16 71 -18 0 -30 -10 -44 -39 -11 -21
-35 -51 -53 -66 l-33 -28 -3 33 c-2 20 7 56 23 93 38 85 54 180 35 214 -21 37
-36 39 -56 8z m34 -72 c-3 -38 -12 -84 -20 -103 -15 -34 -15 -33 -11 45 5 99
10 125 25 125 7 0 9 -21 6 -67z m98 -198 c-7 -18 -26 -20 -26 -2 0 18 24 41
28 27 2 -6 1 -17 -2 -25z m-96 -227 c0 -34 -14 -57 -26 -45 -3 3 -7 40 -10 84
l-4 78 20 -40 c11 -22 20 -57 20 -77z"/>
<path d="M2286 591 c-21 -23 -38 -125 -34 -206 2 -46 -2 -69 -15 -89 -28 -42
-51 -31 -55 27 -4 57 -19 62 -28 8 -8 -51 -18 -65 -39 -57 -17 6 -17 17 0 74
11 32 -13 28 -27 -5 -30 -71 -95 -106 -118 -64 -13 25 3 71 24 71 10 0 13 -6
10 -15 -4 -9 0 -15 10 -15 19 0 21 31 4 48 -32 32 -78 -6 -78 -65 0 -60 51
-86 106 -54 31 19 37 19 50 6 19 -18 25 -19 49 -1 16 11 21 11 33 0 20 -20 35
-17 62 11 l23 24 19 -24 c25 -32 52 -32 79 -1 l21 24 24 -26 c22 -26 24 -26
51 -11 26 14 32 14 51 1 19 -13 25 -13 46 1 21 14 25 14 30 2 15 -39 87 12
102 71 9 37 29 23 26 -18 -2 -23 3 -41 13 -52 20 -20 35 -20 61 -2 17 12 22
12 39 0 24 -18 30 -18 50 3 16 16 18 16 27 0 5 -9 17 -17 28 -17 23 0 78 62
60 68 -7 3 -21 -6 -30 -18 -20 -27 -50 -21 -50 9 0 32 -18 34 -32 4 -15 -31
-41 -37 -46 -11 -5 28 34 59 64 52 20 -5 25 -3 22 7 -2 8 -18 15 -35 17 -31 3
-31 3 -99 -81 -26 -33 -49 -17 -49 33 0 39 -3 45 -22 48 -15 2 -23 10 -23 23
0 26 -27 24 -41 -3 -9 -18 -8 -24 6 -34 16 -12 16 -15 -5 -49 -31 -51 -54 -44
-58 18 -4 57 -19 62 -28 7 -7 -46 -28 -70 -46 -52 -9 9 -9 21 0 49 13 41 6 58
-12 29 -53 -88 -76 -104 -96 -66 -9 16 -7 32 9 76 12 30 21 68 21 84 l0 30 65
0 c51 0 65 3 65 15 0 12 -14 15 -63 15 -51 0 -64 4 -75 20 -14 23 -38 17 -47
-11 -11 -32 -35 -23 -35 14 0 32 -23 77 -39 77 -4 0 -16 -8 -25 -19z m34 -51
c0 -34 -3 -40 -21 -40 -16 0 -19 4 -14 23 4 12 9 30 11 40 9 32 24 18 24 -23z
m99 -49 c-15 -5 -22 6 -14 19 6 9 10 9 16 -1 5 -8 4 -15 -2 -18z m0 -35 c0
-11 -6 -39 -13 -61 l-13 -40 -4 66 c-4 59 -2 65 14 61 10 -2 17 -13 16 -26z
m-116 -23 c-21 -64 -23 -65 -23 -5 0 45 3 52 19 52 19 0 19 -2 4 -47z m63 -42
c-1 -92 -12 -121 -46 -121 -30 0 -40 49 -20 90 10 19 23 54 30 78 22 72 37 53
36 -47z"/>
<path d="M1130 425 c-13 -14 -20 -28 -17 -32 8 -7 57 35 57 49 0 15 -16 8 -40
-17z"/>
<path d="M67 413 c-37 -36 68 -290 130 -314 32 -12 105 -12 137 1 14 5 36 26
49 47 19 30 34 41 72 51 65 17 105 59 105 110 0 45 -23 72 -63 72 -20 0 -27 5
-27 20 0 19 -7 20 -198 20 -109 0 -202 -3 -205 -7z m373 -35 c-1 -41 -26 -112
-62 -176 l-42 -72 -67 0 c-63 0 -69 2 -89 29 -31 45 -77 151 -83 194 l-6 37
175 0 c133 0 174 -3 174 -12z m78 -40 c7 -7 12 -20 12 -31 0 -24 -53 -77 -78
-77 -18 0 -18 2 -3 48 26 74 41 88 69 60z"/>
<path d="M1331 354 c-28 -36 -26 -70 5 -100 27 -28 63 -27 97 3 15 15 19 15
35 0 23 -21 56 -22 71 -3 6 7 25 16 41 20 19 3 37 17 51 38 l20 33 -1 -40 c-4
-84 7 -86 53 -12 l32 52 6 -43 c7 -58 22 -71 57 -52 30 17 61 65 49 76 -4 4
-20 -7 -35 -26 -33 -38 -57 -34 -47 9 3 16 0 34 -9 46 -12 17 -16 18 -32 5 -9
-8 -25 -28 -35 -44 l-18 -30 2 42 c0 22 -2 44 -5 48 -13 13 -38 -6 -55 -41
-18 -37 -43 -47 -43 -17 0 67 -76 63 -123 -6 -46 -68 -112 -66 -105 2 3 32 38
52 38 22 0 -18 15 -21 25 -6 10 16 -14 50 -35 50 -10 0 -28 -12 -39 -26z m229
-48 c0 -5 -7 -3 -15 4 -8 7 -15 20 -15 28 0 13 3 12 15 -4 8 -10 15 -23 15
-28z m-50 14 c0 -11 7 -23 16 -27 15 -6 15 -7 -1 -19 -9 -7 -23 -10 -31 -7
-14 5 -20 54 -7 66 12 13 23 7 23 -13z"/>
<path d="M40 142 c-28 -14 -35 -23 -35 -47 0 -24 7 -33 35 -47 130 -63 448
-41 494 34 8 13 6 22 -8 37 -25 28 -84 47 -99 32 -8 -8 1 -16 31 -28 91 -38
30 -64 -164 -71 -111 -3 -153 -1 -197 12 -31 9 -59 21 -62 27 -4 5 12 17 34
27 42 17 55 42 24 42 -10 0 -34 -8 -53 -18z"/>
</g>
</svg>
